<svg width="30" height="26" viewBox="0 0 30 26" fill="none" xmlns="http://www.w3.org/2000/svg">
<g clip-path="url(#clip0_69_417)">
<path d="M25.3125 10.8052H22.9688V8.55411H25.3125V10.8052ZM30 22.6234V7.42857C30 5.56693 28.4227 4.05195 26.4844 4.05195H22.173C22.0365 4.05195 21.9135 3.98048 21.8502 3.86455L20.6578 1.45758C20.6543 1.45082 20.6514 1.44463 20.6479 1.43788C20.1861 0.550952 19.258 0 18.2256 0H11.8582C10.8258 0 9.89766 0.550952 9.43594 1.43788C9.43242 1.44463 9.42891 1.45082 9.42598 1.45758L8.23301 3.86511C8.16973 3.98048 8.04668 4.05195 7.91016 4.05195H3.51562C1.57734 4.05195 0 5.56693 0 7.42857V22.6234C0 24.485 1.57734 26 3.51562 26H26.4844C28.4227 26 30 24.485 30 22.6234ZM7.91016 6.30303C8.94258 6.30303 9.8707 5.75208 10.3324 4.86515C10.3359 4.8584 10.3395 4.85221 10.3424 4.84545L11.5354 2.43792C11.5986 2.32255 11.7217 2.25108 11.8582 2.25108H18.2256C18.3621 2.25108 18.4852 2.32255 18.5484 2.43792L19.7414 4.84545C19.7449 4.85221 19.7479 4.8584 19.7514 4.86515C20.2131 5.75208 21.1412 6.30303 22.1736 6.30303H26.4844C27.1307 6.30303 27.6562 6.80784 27.6562 7.42857V22.6234C27.6562 23.2441 27.1307 23.7489 26.4844 23.7489H3.51562C2.86934 23.7489 2.34375 23.2441 2.34375 22.6234V7.42857C2.34375 6.80784 2.86934 6.30303 3.51562 6.30303H7.91016ZM22.3242 14.4632C22.3242 10.584 19.0383 7.42857 15 7.42857C10.9617 7.42857 7.67578 10.584 7.67578 14.4632C7.67578 18.3424 10.9611 21.4978 15 21.4978C19.0389 21.4978 22.3242 18.3418 22.3242 14.4632ZM19.9805 14.4632C19.9805 17.1009 17.7463 19.2468 15 19.2468C12.2537 19.2468 10.0195 17.1009 10.0195 14.4632C10.0195 11.8255 12.2537 9.67965 15 9.67965C17.7463 9.67965 19.9805 11.8255 19.9805 14.4632Z" fill="#8C8CB6"/>
</g>
<defs>
<clipPath id="clip0_69_417">
<rect width="30" height="26" fill="white"/>
</clipPath>
</defs>
</svg>
