<svg width="35" height="35" viewBox="0 0 35 35" fill="none" xmlns="http://www.w3.org/2000/svg">
<rect width="34.8859" height="34.8859" rx="10" fill="#E4405F"/>
<path d="M17.0877 8.55189C13.2967 8.55189 9.69674 8.21492 8.3217 11.7411C7.75373 13.1974 7.83621 15.0888 7.83621 17.7971C7.83621 20.1736 7.75999 22.4072 8.3217 23.8521C9.69361 27.3803 13.3228 27.0423 17.0856 27.0423C20.7158 27.0423 24.4588 27.42 25.8506 23.8521C26.4196 22.3811 26.3361 20.5179 26.3361 17.7971C26.3361 14.1854 26.5355 11.8538 24.7825 10.1032C23.0076 8.32968 20.6072 8.55189 17.0835 8.55189H17.0877ZM16.2587 10.2179C24.1665 10.2054 25.173 9.32702 24.6175 21.5298C24.4202 25.8457 21.1314 25.3721 17.0887 25.3721C9.71762 25.3721 9.50567 25.1613 9.50567 17.7929C9.50567 10.339 10.0904 10.2221 16.2587 10.2159V10.2179ZM22.0261 11.7526C21.4133 11.7526 20.9163 12.2491 20.9163 12.8615C20.9163 13.4739 21.4133 13.9705 22.0261 13.9705C22.639 13.9705 23.136 13.4739 23.136 12.8615C23.136 12.2491 22.639 11.7526 22.0261 11.7526V11.7526ZM17.0877 13.0493C14.464 13.0493 12.3372 15.1754 12.3372 17.7971C12.3372 20.4188 14.464 22.5439 17.0877 22.5439C19.7114 22.5439 21.8372 20.4188 21.8372 17.7971C21.8372 15.1754 19.7114 13.0493 17.0877 13.0493V13.0493ZM17.0877 14.7154C21.1648 14.7154 21.17 20.8788 17.0877 20.8788C13.0117 20.8788 13.0054 14.7154 17.0877 14.7154Z" fill="white"/>
</svg>
