<svg width="49" height="49" viewBox="0 0 49 49" fill="none" xmlns="http://www.w3.org/2000/svg">
<rect width="49" height="49" rx="10" fill="#CC181E"/>
<path d="M37 27.7132V37H31.4261V28.3356C31.4261 26.16 30.6214 24.6744 28.6032 24.6744C27.0632 24.6744 26.1482 25.6746 25.7442 26.6431C25.5975 26.9892 25.5596 27.4699 25.5596 27.9553V36.9996H19.9854C19.9854 36.9996 20.0602 22.3249 19.9854 20.8059H25.5601V23.1007C25.5488 23.1188 25.533 23.1365 25.5231 23.1537H25.5601V23.1007C26.3008 21.9997 27.6218 20.4257 30.5836 20.4257C34.2507 20.4257 37 22.7401 37 27.7132ZM14.1542 13C12.2475 13 11 14.209 11 15.7975C11 17.3523 12.2113 18.5963 14.081 18.5963H14.1172C16.0613 18.5963 17.2701 17.3523 17.2701 15.7975C17.2331 14.209 16.0613 13 14.1542 13ZM11.3313 37H16.9035V20.8059H11.3313V37Z" fill="#F1F2F2"/>
</svg>
