<svg width="49" height="49" viewBox="0 0 49 49" fill="none" xmlns="http://www.w3.org/2000/svg">
<rect width="49" height="49" rx="10" fill="#6441A5"/>
<path d="M33.5652 13H15.7391C15.558 13 15.3959 13.1219 15.3322 13.306L14.0278 17.0838C14.0095 17.1369 14 17.1932 14 17.25V32.3611C14 32.6219 14.1947 32.8333 14.4348 32.8333H19.2174V35.1944C19.2174 35.4552 19.412 35.6667 19.6522 35.6667H21.3913C21.5067 35.6669 21.6175 35.6173 21.6991 35.5288L24.18 32.8333H28.3478C28.4632 32.8336 28.574 32.784 28.6557 32.6954L33.873 27.0288C33.9545 26.94 34.0002 26.8198 34 26.6944V13.4722C34 13.2114 33.8053 13 33.5652 13ZM32.2609 25.75C32.2611 25.8753 32.2154 25.9956 32.1339 26.0843L28.6557 29.8621C28.574 29.9506 28.4632 30.0002 28.3478 30H24.18L21.6991 32.6954C21.5296 32.8801 21.2543 32.8804 21.0843 32.6963C21.0023 32.6075 20.9563 32.4868 20.9565 32.3611V30H16.6087C16.3686 30 16.1739 29.7886 16.1739 29.5278V15.3611C16.1739 15.1003 16.3686 14.8889 16.6087 14.8889H31.8261C32.0662 14.8889 32.2609 15.1003 32.2609 15.3611V25.75Z" fill="white"/>
<path d="M22.1176 25.7806C21.8283 25.7806 21.5938 25.5301 21.5938 25.2212V18.5095C21.5938 18.2006 21.8283 17.9502 22.1176 17.9502C22.407 17.9502 22.6415 18.2006 22.6415 18.5095V25.2212C22.6415 25.5302 22.407 25.7806 22.1176 25.7806Z" fill="white"/>
<path d="M27.0713 25.7806C26.7819 25.7806 26.5474 25.5301 26.5474 25.2212V18.5095C26.5474 18.2006 26.7819 17.9502 27.0713 17.9502C27.3606 17.9502 27.5951 18.2007 27.5951 18.5096V25.2213C27.5951 25.5302 27.3606 25.7806 27.0713 25.7806Z" fill="white"/>
</svg>
