<svg width="35" height="35" viewBox="0 0 35 35" fill="none" xmlns="http://www.w3.org/2000/svg">
<rect width="34.8859" height="34.8859" rx="10" fill="#1DA1F2"/>
<path d="M25.6289 12.2811C25.0266 12.5526 24.3787 12.7362 23.6992 12.8182C24.393 12.3957 24.9254 11.7272 25.1767 10.9293C24.5275 11.3207 23.8082 11.6047 23.0433 11.7577C22.4305 11.0943 21.5573 10.6797 20.5905 10.6797C18.7355 10.6797 17.2309 12.209 17.2309 14.0947C17.2309 14.3623 17.2608 14.6229 17.3184 14.8729C14.5263 14.7306 12.0507 13.3711 10.3936 11.3044C10.1045 11.8087 9.93864 12.3957 9.93864 13.0214C9.93864 14.2059 10.5322 15.2517 11.4331 15.8639C10.8827 15.8463 10.3643 15.6928 9.91158 15.4363C9.91133 15.4508 9.91133 15.4653 9.91133 15.4796C9.91133 17.1342 11.0698 18.5143 12.6064 18.8278C12.3248 18.9063 12.0274 18.9478 11.7215 18.9478C11.5045 18.9478 11.2943 18.9266 11.0894 18.8869C11.5168 20.2433 12.7573 21.2307 14.2277 21.2585C13.0777 22.1745 11.6293 22.7203 10.0549 22.7203C9.78431 22.7203 9.51622 22.7043 9.25391 22.6724C10.7399 23.6417 12.5062 24.2069 14.4033 24.2069C20.5827 24.2069 23.962 19.0033 23.962 14.4902C23.962 14.3422 23.9588 14.1947 23.9523 14.0486C24.6092 13.5672 25.1787 12.9659 25.6289 12.2811Z" fill="white"/>
</svg>
