<svg width="35" height="35" viewBox="0 0 35 35" fill="none" xmlns="http://www.w3.org/2000/svg">
<rect width="34.8859" height="34.8859" rx="10" fill="#4C75A3"/>
<path fill-rule="evenodd" clip-rule="evenodd" d="M17.2212 24.1529H18.4553C18.4553 24.1529 18.8281 24.1083 19.0184 23.8851C19.1936 23.6802 19.188 23.2953 19.188 23.2953C19.188 23.2953 19.1639 21.4936 19.9325 21.2283C20.6901 20.9669 21.663 22.9696 22.6942 23.7396C23.474 24.3224 24.0665 24.1946 24.0665 24.1946L26.8238 24.1529C26.8238 24.1529 28.2662 24.0562 27.5823 22.8223C27.5262 22.7214 27.184 21.9096 25.5322 20.2414C23.8033 18.4955 24.0349 18.7779 26.1175 15.7579C27.3858 13.9187 27.8928 12.7958 27.7345 12.3149C27.5834 11.8568 26.6506 11.9779 26.6506 11.9779L23.546 11.9989C23.546 11.9989 23.3159 11.9648 23.1452 12.0758C22.9784 12.1847 22.8711 12.4384 22.8711 12.4384C22.8711 12.4384 22.3797 13.8616 21.7244 15.072C20.342 17.6261 19.7893 17.7609 19.5633 17.6023C19.0378 17.2327 19.169 16.1174 19.169 15.3252C19.169 12.8501 19.514 11.8181 18.4971 11.551C18.1596 11.4622 17.9113 11.4037 17.0483 11.3942C15.9405 11.3817 15.003 11.3979 14.4721 11.6809C14.1189 11.869 13.8465 12.2884 14.0124 12.3124C14.2176 12.3423 14.6823 12.4488 14.9287 12.8138C15.2468 13.2847 15.2356 14.3423 15.2356 14.3423C15.2356 14.3423 15.4184 17.2559 14.8087 17.6179C14.3902 17.8661 13.8162 17.3592 12.5837 15.0422C11.9522 13.8552 11.4755 12.5433 11.4755 12.5433C11.4755 12.5433 11.3835 12.2981 11.2196 12.167C11.0205 12.0081 10.7425 11.9575 10.7425 11.9575L7.7924 11.9785C7.7924 11.9785 7.34954 11.9919 7.18697 12.2014C7.04234 12.3878 7.17548 12.7732 7.17548 12.7732C7.17548 12.7732 9.4851 18.6523 12.1002 21.615C14.4982 24.3313 17.2212 24.1529 17.2212 24.1529Z" fill="white"/>
</svg>
